#Comment line ignore any data following # character 
#Hierarchical Translation and Rotation (.htr) file 
[Header]	
#Header keywords are followed by a single value 
FileType HTR		#Single word string
DataType HTRS		#Translation followed by rotation and scale data
FileVersion 1		#integer
NumSegments 84		#integer
NumFrames 2		#integer
DataFrameRate 30		#integer, data frame rate in this file
EulerRotationOrder ZYX
CalibrationUnits mm
RotationUnits Degrees
GlobalAxisofGravity Y
BoneLengthAxis Y
ScaleFactor 1.00
[SegmentNames&Hierarchy]
#CHILD	PARENT
MASTER GLOBAL
root MASTER
chest root
L_mid_tent01 root
R_mid_tent01 root
spine01 root
Bip01_Neck chest
L_humerus chest
R_humerus chest
weapon_bone chest
Bip01_Head Bip01_Neck
eye_left_bone Bip01_Head
eye_right_bone Bip01_Head
L_forearm L_humerus
L_front_hand L_forearm
L_weapon_bone L_forearm
L_front_hand01_01 L_front_hand
L_front_hand02_01 L_front_hand
L_front_hand03_01 L_front_hand
L_front_hand01_02 L_front_hand01_01
L_front_hand02_02 L_front_hand02_01
L_front_hand03_02 L_front_hand03_01
R_forearm R_humerus
R_front_hand R_forearm
R_weapon_bone R_forearm
R_front_hand01_01 R_front_hand
R_front_hand02_01 R_front_hand
R_front_hand03_01 R_front_hand
R_front_hand01_02 R_front_hand01_01
R_front_hand02_02 R_front_hand02_01
R_front_hand03_02 R_front_hand03_01
null_rope01_connect L_mid_tent01
Rope1_Seg01 null_rope01_connect
Rope1_Seg02 Rope1_Seg01
Rope1_Seg03 Rope1_Seg02
Rope1_Seg04 Rope1_Seg03
Rope1_Seg05 Rope1_Seg04
Rope1_Seg06 Rope1_Seg05
Rope1_Seg07 Rope1_Seg06
Rope1_Seg09 Rope1_Seg07
L_mid_hand01 Rope1_Seg09
L_mid_hand02 Rope1_Seg09
L_mid_hand03 Rope1_Seg09
null_rope02_connect R_mid_tent01
Rope2_Seg01 null_rope02_connect
Rope2_Seg02 Rope2_Seg01
Rope2_Seg03 Rope2_Seg02
Rope2_Seg04 Rope2_Seg03
Rope2_Seg05 Rope2_Seg04
Rope2_Seg06 Rope2_Seg05
Rope2_Seg07 Rope2_Seg06
Rope2_Seg09 Rope2_Seg07
R_mid_hand01 Rope2_Seg09
R_mid_hand02 Rope2_Seg09
R_mid_hand03 Rope2_Seg09
spine02 spine01
spine03 spine02
pelvis spine03
null_rope03_connect pelvis
null_rope04_connect pelvis
Rope3_Seg01 null_rope03_connect
Rope3_Seg02 Rope3_Seg01
Rope3_Seg03 Rope3_Seg02
Rope3_Seg04 Rope3_Seg03
Rope3_Seg05 Rope3_Seg04
Rope3_Seg06 Rope3_Seg05
Rope3_Seg07 Rope3_Seg06
Rope3_Seg08 Rope3_Seg07
Rope3_Seg09 Rope3_Seg08
R_rear_hand01 Rope3_Seg09
R_rear_hand02 Rope3_Seg09
R_rear_hand03 Rope3_Seg09
Rope4_Seg01 null_rope04_connect
Rope4_Seg02 Rope4_Seg01
Rope4_Seg03 Rope4_Seg02
Rope4_Seg04 Rope4_Seg03
Rope4_Seg05 Rope4_Seg04
Rope4_Seg06 Rope4_Seg05
Rope4_Seg07 Rope4_Seg06
Rope4_Seg08 Rope4_Seg07
Rope4_Seg09 Rope4_Seg08
L_rear_hand01 Rope4_Seg09
L_rear_hand02 Rope4_Seg09
L_rear_hand03 Rope4_Seg09
[BasePosition]
#SegmentName Tx, Ty, Tz, Rx, Ry, Rz, BoneLength
MASTER 0.000000 0.000000 0.000000 -90.000000 0.000000 0.000000 10.000000 
root 0.000000 0.000000 0.000000 0.000000 0.000000 0.000000 10.000000 
chest 0.000000 0.000000 0.000000 0.000000 0.000000 0.000000 10.000000 
L_mid_tent01 0.000000 0.000000 0.000000 0.000000 0.000000 0.000000 10.000000 
R_mid_tent01 0.000000 0.000000 0.000000 0.000000 0.000000 0.000000 10.000000 
spine01 0.000000 0.000000 0.000000 0.000000 0.000000 0.000000 10.000000 
Bip01_Neck 0.000000 0.000000 0.000000 0.000000 0.000000 0.000000 10.000000 
L_humerus 0.000000 0.000000 0.000000 0.000000 0.000000 0.000000 10.000000 
R_humerus 0.000000 0.000000 0.000000 0.000000 0.000000 0.000000 10.000000 
weapon_bone 0.000000 0.000000 0.000000 0.000000 0.000000 0.000000 10.000000 
Bip01_Head 0.000000 0.000000 0.000000 0.000000 0.000000 0.000000 10.000000 
eye_left_bone 0.000000 0.000000 0.000000 0.000000 0.000000 0.000000 10.000000 
eye_right_bone 0.000000 0.000000 0.000000 0.000000 0.000000 0.000000 10.000000 
L_forearm 0.000000 0.000000 0.000000 0.000000 0.000000 0.000000 10.000000 
L_front_hand 0.000000 0.000000 0.000000 0.000000 0.000000 0.000000 10.000000 
L_weapon_bone 0.000000 0.000000 0.000000 0.000000 0.000000 0.000000 10.000000 
L_front_hand01_01 0.000000 0.000000 0.000000 0.000000 0.000000 0.000000 10.000000 
L_front_hand02_01 0.000000 0.000000 0.000000 0.000000 0.000000 0.000000 10.000000 
L_front_hand03_01 0.000000 0.000000 0.000000 0.000000 0.000000 0.000000 10.000000 
L_front_hand01_02 0.000000 0.000000 0.000000 0.000000 0.000000 0.000000 10.000000 
L_front_hand02_02 0.000000 0.000000 0.000000 0.000000 0.000000 0.000000 10.000000 
L_front_hand03_02 0.000000 0.000000 0.000000 0.000000 0.000000 0.000000 10.000000 
R_forearm 0.000000 0.000000 0.000000 0.000000 0.000000 0.000000 10.000000 
R_front_hand 0.000000 0.000000 0.000000 0.000000 0.000000 0.000000 10.000000 
R_weapon_bone 0.000000 0.000000 0.000000 0.000000 0.000000 0.000000 10.000000 
R_front_hand01_01 0.000000 0.000000 0.000000 0.000000 0.000000 0.000000 10.000000 
R_front_hand02_01 0.000000 0.000000 0.000000 0.000000 0.000000 0.000000 10.000000 
R_front_hand03_01 0.000000 0.000000 0.000000 0.000000 0.000000 0.000000 10.000000 
R_front_hand01_02 0.000000 0.000000 0.000000 0.000000 0.000000 0.000000 10.000000 
R_front_hand02_02 0.000000 0.000000 0.000000 0.000000 0.000000 0.000000 10.000000 
R_front_hand03_02 0.000000 0.000000 0.000000 0.000000 0.000000 0.000000 10.000000 
null_rope01_connect 0.000000 0.000000 0.000000 0.000000 0.000000 0.000000 10.000000 
Rope1_Seg01 0.000000 0.000000 0.000000 0.000000 0.000000 0.000000 10.000000 
Rope1_Seg02 0.000000 0.000000 0.000000 0.000000 0.000000 0.000000 10.000000 
Rope1_Seg03 0.000000 0.000000 0.000000 0.000000 0.000000 0.000000 10.000000 
Rope1_Seg04 0.000000 0.000000 0.000000 0.000000 0.000000 0.000000 10.000000 
Rope1_Seg05 0.000000 0.000000 0.000000 0.000000 0.000000 0.000000 10.000000 
Rope1_Seg06 0.000000 0.000000 0.000000 0.000000 0.000000 0.000000 10.000000 
Rope1_Seg07 0.000000 0.000000 0.000000 0.000000 0.000000 0.000000 10.000000 
Rope1_Seg09 0.000000 0.000000 0.000000 0.000000 0.000000 0.000000 10.000000 
L_mid_hand01 0.000000 0.000000 0.000000 0.000000 0.000000 0.000000 10.000000 
L_mid_hand02 0.000000 0.000000 0.000000 0.000000 0.000000 0.000000 10.000000 
L_mid_hand03 0.000000 0.000000 0.000000 0.000000 0.000000 0.000000 10.000000 
null_rope02_connect 0.000000 0.000000 0.000000 0.000000 0.000000 0.000000 10.000000 
Rope2_Seg01 0.000000 0.000000 0.000000 0.000000 0.000000 0.000000 10.000000 
Rope2_Seg02 0.000000 0.000000 0.000000 0.000000 0.000000 0.000000 10.000000 
Rope2_Seg03 0.000000 0.000000 0.000000 0.000000 0.000000 0.000000 10.000000 
Rope2_Seg04 0.000000 0.000000 0.000000 0.000000 0.000000 0.000000 10.000000 
Rope2_Seg05 0.000000 0.000000 0.000000 0.000000 0.000000 0.000000 10.000000 
Rope2_Seg06 0.000000 0.000000 0.000000 0.000000 0.000000 0.000000 10.000000 
Rope2_Seg07 0.000000 0.000000 0.000000 0.000000 0.000000 0.000000 10.000000 
Rope2_Seg09 0.000000 0.000000 0.000000 0.000000 0.000000 0.000000 10.000000 
R_mid_hand01 0.000000 0.000000 0.000000 0.000000 0.000000 0.000000 10.000000 
R_mid_hand02 0.000000 0.000000 0.000000 0.000000 0.000000 0.000000 10.000000 
R_mid_hand03 0.000000 0.000000 0.000000 0.000000 0.000000 0.000000 10.000000 
spine02 0.000000 0.000000 0.000000 0.000000 0.000000 0.000000 10.000000 
spine03 0.000000 0.000000 0.000000 0.000000 0.000000 0.000000 10.000000 
pelvis 0.000000 0.000000 0.000000 0.000000 0.000000 0.000000 10.000000 
null_rope03_connect 0.000000 0.000000 0.000000 0.000000 0.000000 0.000000 10.000000 
null_rope04_connect 0.000000 0.000000 0.000000 0.000000 0.000000 0.000000 10.000000 
Rope3_Seg01 0.000000 0.000000 0.000000 0.000000 0.000000 0.000000 10.000000 
Rope3_Seg02 0.000000 0.000000 0.000000 0.000000 0.000000 0.000000 10.000000 
Rope3_Seg03 0.000000 0.000000 0.000000 0.000000 0.000000 0.000000 10.000000 
Rope3_Seg04 0.000000 0.000000 0.000000 0.000000 0.000000 0.000000 10.000000 
Rope3_Seg05 0.000000 0.000000 0.000000 0.000000 0.000000 0.000000 10.000000 
Rope3_Seg06 0.000000 0.000000 0.000000 0.000000 0.000000 0.000000 10.000000 
Rope3_Seg07 0.000000 0.000000 0.000000 0.000000 0.000000 0.000000 10.000000 
Rope3_Seg08 0.000000 0.000000 0.000000 0.000000 0.000000 0.000000 10.000000 
Rope3_Seg09 0.000000 0.000000 0.000000 0.000000 0.000000 0.000000 10.000000 
R_rear_hand01 0.000000 0.000000 0.000000 0.000000 0.000000 0.000000 10.000000 
R_rear_hand02 0.000000 0.000000 0.000000 0.000000 0.000000 0.000000 10.000000 
R_rear_hand03 0.000000 0.000000 0.000000 0.000000 0.000000 0.000000 10.000000 
Rope4_Seg01 0.000000 0.000000 0.000000 0.000000 0.000000 0.000000 10.000000 
Rope4_Seg02 0.000000 0.000000 0.000000 0.000000 0.000000 0.000000 10.000000 
Rope4_Seg03 0.000000 0.000000 0.000000 0.000000 0.000000 0.000000 10.000000 
Rope4_Seg04 0.000000 0.000000 0.000000 0.000000 0.000000 0.000000 10.000000 
Rope4_Seg05 0.000000 0.000000 0.000000 0.000000 0.000000 0.000000 10.000000 
Rope4_Seg06 0.000000 0.000000 0.000000 0.000000 0.000000 0.000000 10.000000 
Rope4_Seg07 0.000000 0.000000 0.000000 0.000000 0.000000 0.000000 10.000000 
Rope4_Seg08 0.000000 0.000000 0.000000 0.000000 0.000000 0.000000 10.000000 
Rope4_Seg09 0.000000 0.000000 0.000000 0.000000 0.000000 0.000000 10.000000 
L_rear_hand01 0.000000 0.000000 0.000000 0.000000 0.000000 0.000000 10.000000 
L_rear_hand02 0.000000 0.000000 0.000000 0.000000 0.000000 0.000000 10.000000 
L_rear_hand03 0.000000 0.000000 0.000000 0.000000 0.000000 0.000000 10.000000 
#Beginning of Data. Separated by tabs
#Fr	Tx	Ty	Tz	Rx	Ry	Rz	SF
[MASTER]
26 -0.000469 3124.999512 0.000000 0.001660 0.001660 0.001660 3124.999512
27 -0.000488 3249.999512 0.000000 0.001660 0.001660 0.001660 3249.999512
[root]
26 -37.702496 -51.812134 1500.053833 -91.728897 -11.584496 -89.471619 1501.421875
27 -37.882366 -51.398621 1502.621582 -91.728889 -11.584497 -89.471619 1503.977417
[chest]
26 -84.512650 -34.090519 0.000000 -2.182314 -0.082454 167.187866 91.129311
27 -84.512650 -34.090519 0.000000 -2.180746 -0.075453 167.284515 91.129311
[L_mid_tent01]
26 27.299143 22.179258 -249.918671 -20.387100 7.895854 14.552015 252.381668
27 27.299147 22.179258 -249.918671 -20.400429 8.124925 14.466382 252.381668
[R_mid_tent01]
26 23.228794 24.509907 226.238495 -165.688843 -10.409806 26.077387 228.744751
27 23.228794 24.509907 226.238495 -165.670700 -10.828221 25.965546 228.744751
[spine01]
26 -0.361383 -0.195265 0.000000 0.001952 0.001303 22.542543 0.410763
27 -0.361383 -0.195265 0.000000 0.001952 0.001304 22.498846 0.410763
[Bip01_Neck]
26 165.484543 71.581718 0.000119 176.643677 -1.657967 43.431911 180.302734
27 165.484543 71.581718 0.000119 176.643677 -1.657967 43.431911 180.302734
[L_humerus]
26 -13.983130 -135.272980 -120.471481 178.516861 15.523934 -90.057167 181.680161
27 -13.983130 -135.272980 -120.471481 178.646225 20.204798 -90.021919 181.680161
[R_humerus]
26 -13.983309 -135.273102 125.287651 -178.022079 -18.510225 -85.120308 184.909012
27 -13.983309 -135.273102 125.287651 -178.501114 -22.884777 -84.720314 184.909012
[weapon_bone]
26 235.964890 -300.705902 0.000000 0.000000 -89.951546 -128.212341 382.234833
27 235.964890 -300.705902 0.000000 0.000000 -89.951546 -128.212341 382.234833
[Bip01_Head]
26 213.555298 185.405548 15.777326 4.440304 -1.299422 -43.899719 283.249023
27 213.529053 185.479050 14.828108 4.441657 -1.236577 -43.900593 283.226044
[eye_left_bone]
26 -24.626970 125.451866 -64.772606 0.000000 -90.000000 -99.840431 143.318359
27 -24.626970 125.451866 -64.772606 0.000000 -90.000000 -99.840431 143.318359
[eye_right_bone]
26 -24.626970 125.451866 64.327362 0.000000 -89.965736 80.156380 143.117676
27 -24.626970 125.451866 64.327362 0.000000 -89.965736 80.156380 143.117676
[L_forearm]
26 322.776093 0.000000 -0.000119 0.000417 -0.002310 -110.481018 322.776093
27 322.776093 0.000000 -0.000119 0.000415 -0.002310 -110.382835 322.776093
[L_front_hand]
26 241.149185 -0.042021 -3.300071 -178.667953 -1.835447 -27.422350 241.171753
27 241.149185 -0.042021 -3.300071 -178.667953 -1.835447 -27.422342 241.171753
[L_weapon_bone]
26 156.183838 0.000000 0.000000 0.000014 0.000007 0.000001 156.183838
27 156.183838 0.000000 0.000000 0.000014 0.000007 0.000001 156.183838
[L_front_hand01_01]
26 86.095154 20.947098 -0.655860 -0.342291 -0.495149 72.451668 88.609184
27 86.095154 20.947098 -0.655860 -0.349230 -0.490139 73.139854 88.609184
[L_front_hand02_01]
26 86.935165 -11.437475 24.513514 150.048447 -58.519783 -56.305618 91.046425
27 86.935165 -11.437475 24.513514 151.025055 -58.854893 -57.448074 91.046425
[L_front_hand03_01]
26 86.637497 -14.123976 -20.424902 -149.869934 56.734909 -57.903381 90.126129
27 86.637497 -14.123976 -20.424902 -150.781433 57.074539 -58.996449 90.126129
[L_front_hand01_02]
26 71.020905 -0.000179 0.000030 0.000322 -0.002325 -105.778519 71.020905
27 71.020905 -0.000179 0.000030 0.000323 -0.002325 -105.832039 71.020905
[L_front_hand02_02]
26 71.020927 -0.000119 0.000060 0.000322 -0.002325 -105.778519 71.020927
27 71.020927 -0.000119 0.000060 0.000323 -0.002325 -105.832039 71.020927
[L_front_hand03_02]
26 71.020905 -0.000060 0.000060 0.000322 -0.002325 -105.778519 71.020905
27 71.020905 -0.000060 0.000060 0.000323 -0.002325 -105.832039 71.020905
[R_forearm]
26 322.776428 -0.000060 0.000030 0.201486 0.067041 -109.132156 322.776428
27 322.776428 -0.000060 0.000030 0.201541 0.066874 -109.037537 322.776428
[R_front_hand]
26 238.847015 -0.006795 2.210259 -2.635298 -10.645461 -26.312506 238.857239
27 238.847015 -0.006795 2.210259 -2.635298 -10.645461 -26.312506 238.857239
[R_weapon_bone]
26 155.664093 0.002503 -0.000030 0.003487 0.001180 -90.988930 155.664078
27 155.664093 0.002503 -0.000030 0.003487 0.001180 -90.988930 155.664078
[R_front_hand01_01]
26 87.624611 14.231146 22.918642 -153.375824 -59.587143 60.286877 91.683487
27 87.624611 14.231146 22.918642 -154.293076 -59.856678 61.349689 91.683487
[R_front_hand02_01]
26 89.356956 14.367283 -19.491137 153.420517 57.944519 62.356815 92.579636
27 89.356956 14.367283 -19.491137 154.283218 58.213100 63.373543 92.579636
[R_front_hand03_01]
26 87.286232 -22.307278 -0.143439 0.155221 -0.427320 -74.955513 90.091743
27 87.286232 -22.307278 -0.143439 0.161369 -0.423469 -75.555016 90.091743
[R_front_hand01_02]
26 71.020905 0.000060 0.000119 0.002323 -0.000334 106.381714 71.020905
27 71.020905 0.000060 0.000119 0.002323 -0.000334 106.381714 71.020905
[R_front_hand02_02]
26 71.020844 -0.000030 -0.000119 0.002323 -0.000334 106.381714 71.020836
27 71.020844 -0.000030 -0.000119 0.002323 -0.000334 106.381714 71.020836
[R_front_hand03_02]
26 71.020905 0.000000 0.000030 0.002323 -0.000334 106.381714 71.020905
27 71.020905 0.000000 0.000030 0.002323 -0.000334 106.381714 71.020905
[null_rope01_connect]
26 328.732483 0.000000 -0.000238 -164.225601 -66.626213 -110.028610 328.732483
27 328.732483 0.000000 -0.000238 -163.674408 -66.545975 -110.532875 328.732483
[Rope1_Seg01]
26 -0.000024 -0.000205 0.000057 89.976227 -0.419353 -96.517189 0.000214
27 -0.000025 -0.000212 0.000053 88.294380 0.189687 -97.438828 0.000220
[Rope1_Seg02]
26 139.999863 -0.000179 0.000000 1.470520 4.416802 -3.124736 139.999863
27 139.999863 -0.000179 0.000000 1.921676 4.693298 -2.929851 139.999863
[Rope1_Seg03]
26 139.999924 0.000060 -0.000060 -3.352369 1.326428 -6.027127 139.999924
27 139.999924 0.000060 -0.000060 -3.242241 1.557376 -6.126513 139.999924
[Rope1_Seg04]
26 139.999924 -0.000060 -0.000119 5.937469 8.954677 0.000061 139.999924
27 139.999924 -0.000060 -0.000119 6.482382 9.275887 0.513198 139.999924
[Rope1_Seg05]
26 139.999832 0.000119 -0.000060 8.656107 9.680657 5.187049 139.999832
27 139.999832 0.000119 -0.000060 9.178823 9.931508 5.752712 139.999832
[Rope1_Seg06]
26 139.999954 0.000119 -0.000060 2.138312 3.251249 0.839276 139.999954
27 139.999954 0.000119 -0.000060 2.266489 3.351873 0.963723 139.999954
[Rope1_Seg07]
26 139.999985 0.000060 0.000000 1.085315 1.823606 0.335513 139.999985
27 139.999985 0.000060 0.000000 1.148325 1.869796 0.398814 139.999985
[Rope1_Seg09]
26 121.602913 0.000119 -0.000089 -89.793175 -1.359789 0.847147 121.602913
27 121.602913 0.000119 -0.000089 -89.793175 -1.359789 0.847147 121.602913
[L_mid_hand01]
26 103.859421 1.038730 8.195221 130.544373 -67.584534 -38.866943 104.187431
27 103.859421 1.038730 8.195221 130.544373 -67.584534 -38.866943 104.187431
[L_mid_hand02]
26 105.572853 -4.139662 -10.864139 -168.923172 43.409309 -73.498886 106.211075
27 105.572853 -4.139662 -10.864139 -168.923172 43.409309 -73.498886 106.211075
[L_mid_hand03]
26 104.641464 17.579376 -3.913581 -6.012627 17.808174 74.893669 106.179977
27 104.641464 17.579376 -3.913581 -6.012627 17.808174 74.893669 106.179977
[null_rope02_connect]
26 328.732849 0.000179 -0.000119 -156.532578 73.871216 -50.618694 328.732849
27 328.732849 0.000179 -0.000119 -155.343201 73.590111 -49.477356 328.732849
[Rope2_Seg01]
26 0.000100 -0.000148 0.000000 -42.621105 -5.649714 -80.293564 0.000179
27 0.000101 -0.000158 0.000000 -41.832104 -5.364782 -79.134453 0.000188
[Rope2_Seg02]
26 139.999741 -0.000060 -0.000119 -1.405756 9.616411 -5.503991 139.999756
27 139.999741 -0.000060 -0.000119 -1.707443 9.193512 -5.620941 139.999756
[Rope2_Seg03]
26 140.000107 0.000030 0.000000 0.465612 5.664614 -1.733254 140.000107
27 140.000107 0.000030 0.000000 0.477899 4.945557 -1.467797 140.000107
[Rope2_Seg04]
26 139.999802 0.000000 -0.000060 -1.808709 7.171018 -6.155841 139.999802
27 139.999802 0.000000 -0.000060 -2.148704 7.784201 -6.782030 139.999802
[Rope2_Seg05]
26 139.999985 -0.000060 0.000119 -1.225263 4.362408 -4.768217 139.999985
27 139.999985 -0.000060 0.000119 -1.413306 5.269430 -5.432543 139.999985
[Rope2_Seg06]
26 139.999893 -0.000030 -0.000119 -0.356392 1.964682 -1.839656 139.999893
27 139.999893 -0.000030 -0.000119 -0.385264 2.270308 -2.049062 139.999893
[Rope2_Seg07]
26 139.999893 0.000060 -0.000060 -0.203007 1.221372 -1.103476 139.999893
27 139.999893 0.000060 -0.000060 -0.216018 1.394154 -1.222669 139.999893
[Rope2_Seg09]
26 121.338966 0.000089 -0.000060 33.793236 -1.359788 -0.847141 121.338966
27 121.338966 0.000089 -0.000060 33.793236 -1.359788 -0.847141 121.338966
[R_mid_hand01]
26 104.680779 11.144459 -10.335981 -16.212063 45.237247 70.462852 105.778534
27 104.680779 11.144459 -10.335981 -16.212063 45.237240 70.462852 105.778534
[R_mid_hand02]
26 104.070427 2.443552 8.231699 49.067371 -67.749794 39.286472 104.424065
27 104.070427 2.443552 8.231699 49.067371 -67.749794 39.286472 104.424065
[R_mid_hand03]
26 106.028137 -11.221827 -5.996406 -177.101105 15.551026 -76.585571 106.788818
27 106.028137 -11.221827 -5.996406 -177.101105 15.551026 -76.585571 106.788818
[spine02]
26 129.756927 0.001550 0.000119 0.463240 -4.033420 -14.447600 129.756927
27 129.756927 0.001550 0.000119 0.453442 -4.034584 -14.308815 129.756927
[spine03]
26 78.613945 0.081635 -4.899016 1.958531 3.801418 17.431726 78.766487
27 78.613937 0.081635 -4.899016 1.952898 3.804061 17.342920 78.766479
[pelvis]
26 169.435242 0.051022 0.000000 -0.067588 -0.178602 16.027838 169.435257
27 169.435242 0.051022 0.000000 -0.066491 -0.178823 15.847282 169.435257
[null_rope03_connect]
26 -1.257226 -2.466202 137.391083 0.000000 -89.478104 60.047699 137.418976
27 -1.257226 -2.466202 137.391083 0.000000 -89.468811 60.218685 137.418976
[null_rope04_connect]
26 -1.259640 -2.480268 -137.844437 0.000000 -89.478104 60.047699 137.872513
27 -1.259640 -2.480268 -137.844437 0.000000 -89.468811 60.218685 137.872513
[Rope3_Seg01]
26 0.000010 0.000038 -0.000114 4.752090 30.685490 -104.815834 0.000121
27 0.000010 0.000038 -0.000114 4.524968 31.483606 -104.909073 0.000121
[Rope3_Seg02]
26 139.999924 -0.000119 0.000060 1.379785 -5.179427 2.816145 139.999924
27 139.999924 -0.000119 0.000060 1.335830 -5.087560 3.076620 139.999924
[Rope3_Seg03]
26 139.999924 -0.000119 0.000119 1.842482 -6.986761 4.037859 139.999924
27 139.999924 -0.000119 0.000119 1.764752 -7.001921 4.493648 139.999924
[Rope3_Seg04]
26 139.999924 0.000119 0.000000 3.959374 -15.571807 4.971286 139.999924
27 139.999924 0.000119 0.000000 3.480103 -15.851351 7.030869 139.999924
[Rope3_Seg05]
26 139.999924 -0.000238 0.000060 2.049890 -3.588975 9.738312 139.999924
27 139.999924 -0.000238 0.000060 1.845595 -4.771132 9.614773 139.999924
[Rope3_Seg06]
26 139.999893 -0.000119 -0.000060 0.222377 10.671491 5.393980 139.999893
27 139.999893 -0.000119 -0.000060 -0.078866 10.511395 2.850494 139.999893
[Rope3_Seg07]
26 139.999771 0.000060 -0.000119 0.596652 3.018968 3.045588 139.999771
27 139.999771 0.000060 -0.000119 0.556088 2.895143 2.162981 139.999771
[Rope3_Seg08]
26 139.999985 -0.000060 0.000000 0.580043 1.575573 1.770562 139.999985
27 139.999985 -0.000060 0.000000 0.572432 1.483999 1.295105 139.999985
[Rope3_Seg09]
26 90.185997 -0.000179 -0.000060 89.793228 -1.359877 -0.847183 90.185997
27 90.185997 -0.000179 -0.000060 89.793228 -1.359877 -0.847183 90.185997
[R_rear_hand01]
26 103.366196 -6.073594 -10.757982 -177.714203 24.565960 -73.910950 104.101845
27 103.366196 -6.073594 -10.757982 -177.714203 24.565960 -73.910950 104.101845
[R_rear_hand02]
26 100.509819 12.039542 -7.992327 -12.874829 36.868488 72.167213 101.543350
27 100.509819 12.039542 -7.992327 -12.874831 36.868481 72.167213 101.543350
[R_rear_hand03]
26 101.539970 5.215704 5.435467 71.484581 -71.816628 21.513813 101.819031
27 101.539970 5.215704 5.435467 71.484581 -71.816612 21.513800 101.819031
[Rope4_Seg01]
26 0.000010 0.000038 -0.000114 -92.311989 32.808018 -85.808258 0.000121
27 0.000010 0.000038 -0.000114 -92.345512 32.377693 -85.812401 0.000121
[Rope4_Seg02]
26 139.999985 0.000060 0.000119 -0.575398 0.126864 -6.629980 139.999985
27 139.999985 0.000060 0.000119 -0.538975 0.106366 -6.164209 139.999985
[Rope4_Seg03]
26 139.999924 0.000000 -0.000238 -0.905906 0.258902 -6.938709 139.999924
27 139.999924 0.000000 -0.000238 -0.828528 0.227303 -6.467606 139.999924
[Rope4_Seg04]
26 139.999985 0.000000 0.000119 -1.477446 1.891302 -7.606714 139.999985
27 139.999985 0.000000 0.000119 -1.309778 1.765475 -6.952931 139.999985
[Rope4_Seg05]
26 139.999802 -0.000060 -0.000119 -1.119412 -0.628203 -6.326307 139.999802
27 139.999802 -0.000060 -0.000119 -1.062685 -0.706859 -6.246629 139.999802
[Rope4_Seg06]
26 139.999924 0.000000 0.000060 -0.304364 -4.032422 -3.823630 139.999924
27 139.999924 0.000000 0.000060 -0.407555 -3.849394 -4.176963 139.999924
[Rope4_Seg07]
26 139.999802 0.000000 0.000000 -0.406238 -3.027692 -3.104875 139.999802
27 139.999802 0.000000 0.000000 -0.512304 -2.697477 -3.288947 139.999802
[Rope4_Seg08]
26 139.999924 0.000000 0.000119 -2.102322 -1.619935 -2.358197 139.999924
27 139.999924 0.000000 0.000119 -2.124048 -1.434325 -2.374488 139.999924
[Rope4_Seg09]
26 90.185791 0.000060 0.000060 -135.617828 2.228885 0.850567 90.185791
27 90.185791 0.000060 0.000060 -135.617828 2.228885 0.850567 90.185791
[L_rear_hand01]
26 101.696655 -8.392275 -7.654577 -12.874829 -36.868488 107.832764 102.329041
27 101.696655 -8.392275 -7.654577 -12.874829 -36.868488 107.832764 102.329041
[L_rear_hand02]
26 102.726799 -1.568258 5.773216 71.484581 71.816628 158.486160 102.900848
27 102.726799 -1.568258 5.773216 71.484581 71.816628 158.486160 102.900848
[L_rear_hand03]
26 104.552910 9.721220 -10.420293 -177.714203 -24.565960 -106.089035 105.519653
27 104.552910 9.721220 -10.420293 -177.714203 -24.565960 -106.089035 105.519653
